<svg id="Calque_1" data-name="Calque 1" xmlns="http://www.w3.org/2000/svg" viewBox="0 0 595.28 841.89"><defs><style>.cls-1{fill:#00af4f;}.cls-2{fill:none;stroke:#00af4f;stroke-linejoin:round;stroke-width:1.81px;}</style></defs><path class="cls-1" d="M41.31,30.24h-8.6V811.65H562.64V30.24H41.31Zm517,4.3V807.35H37V34.54H558.35Z"/><path class="cls-1" d="M41.31,36.69H39.16V805.2h517V36.69H41.31ZM554.05,803.05H41.31V38.84H554.05Z"/><path class="cls-1" d="M564.79,25.94H28.42v790H566.94v-790Zm0,12.9v775H30.56V28.09H564.79Z"/><path class="cls-2" d="M61.28,534.12a8.86,8.86,0,0,1,8.86-8.86H527.88V516.4a8.87,8.87,0,0,1,17.73,0V622.75a8.86,8.86,0,0,1-8.86,8.86H79v8.86a8.86,8.86,0,0,1-17.72,0Zm466.6-8.86h8.87a8.86,8.86,0,0,0,8.86-8.86m-8.86,8.86V516.4a4.44,4.44,0,0,1-8.87,0M70.14,543v-8.87a4.43,4.43,0,0,1,8.86,0,8.86,8.86,0,1,1-17.72,0m17.72,0v97.49"/></svg>