<svg id="Calque_1" data-name="Calque 1" xmlns="http://www.w3.org/2000/svg" viewBox="0 0 595.28 841.89"><defs><style>.cls-1{fill:#ccc;fill-rule:evenodd;}.cls-2{fill:none;stroke:#00af4f;stroke-linejoin:round;stroke-width:1.81px;}</style></defs><path class="cls-1" d="M70.86,543a8.86,8.86,0,0,0,8.86-8.86,4.43,4.43,0,1,0-8.86,0Zm466.62-17.73a8.86,8.86,0,1,0-8.86-8.86,4.43,4.43,0,0,0,8.86,0Z"/><path class="cls-2" d="M62,534.12a8.86,8.86,0,0,1,8.86-8.86H528.61V516.4a8.86,8.86,0,0,1,17.72,0V622.75a8.86,8.86,0,0,1-8.86,8.86H79.72v8.86a8.86,8.86,0,1,1-17.72,0Zm466.61-8.86h8.86a8.85,8.85,0,0,0,8.86-8.86m-8.86,8.86V516.4a4.43,4.43,0,0,1-8.86,0M70.86,543v-8.87a4.43,4.43,0,1,1,8.86,0,8.86,8.86,0,1,1-17.72,0m17.72,0v97.49"/></svg>