<svg id="Calque_1" data-name="Calque 1" xmlns="http://www.w3.org/2000/svg" viewBox="0 0 494.51 150.14"><defs><style>.cls-1{fill:#ccc;fill-rule:evenodd;}.cls-2{fill:none;stroke:#00af4f;stroke-linejoin:round;stroke-width:1.81px;}</style></defs><path class="cls-1" d="M13.84,39.08a8.86,8.86,0,0,0,8.86-8.86,4.43,4.43,0,0,0-8.86,0ZM480.46,21.36a8.87,8.87,0,1,0-8.86-8.86,4.43,4.43,0,0,0,8.86,0Z"/><path class="cls-2" d="M5.09,30.76A8.86,8.86,0,0,1,14,21.9H471.7V13a8.86,8.86,0,1,1,17.72,0V119.38a8.86,8.86,0,0,1-8.86,8.86H22.81v8.86a8.86,8.86,0,1,1-17.72,0ZM471.7,21.9h8.86A8.86,8.86,0,0,0,489.42,13m-8.86,8.86V13a4.43,4.43,0,0,1-8.86,0M14,39.62V30.76a4.43,4.43,0,0,1,8.86,0,8.86,8.86,0,0,1-17.72,0m17.72,0v97.48"/></svg>